HIERARCHY
ROOT Spine
{
    OFFSET 0.0 0.0 -0.0
    CHANNELS 6 Xposition Yposition Zposition Zrotation Xrotation Yrotation
    JOINT ShoulderCenter
    {
        OFFSET 0.0 0.22807911038398743 0.0
        CHANNELS 3 Zrotation Xrotation Yrotation
        JOINT LeftShoulder
        {
            OFFSET 0.17535437643527985 0.0 0.0
            CHANNELS 3 Zrotation Xrotation Yrotation
            JOINT LeftElbow
            {
                OFFSET 0.2451436072587967 0.0 0.0
                CHANNELS 3 Zrotation Xrotation Yrotation
                JOINT LeftHand
                {
                    OFFSET 0.2747396230697632 0.0 0.0
                    CHANNELS 3 Zrotation Xrotation Yrotation
                    End Site
                    {
                        OFFSET 0.10989585518836975 0.0 0.0
                    }
                }
            }
        }
        JOINT RightShoulder
        {
            OFFSET -0.17535437643527985 0.0 0.0
            CHANNELS 3 Zrotation Xrotation Yrotation
            JOINT RightElbow
            {
                OFFSET -0.2451436072587967 0.0 0.0
                CHANNELS 3 Zrotation Xrotation Yrotation
                JOINT RightHand
                {
                    OFFSET -0.2747396230697632 0.0 0.0
                    CHANNELS 3 Zrotation Xrotation Yrotation
                    End Site
                    {
                        OFFSET -0.10989585518836975 0.0 0.0
                    }
                }
            }
        }
        End Site
        {
            OFFSET 0.0 0.09123164415359497 0.0
        }
    }
    JOINT LeftHip
    {
        OFFSET 0.21907544104956417 -0.21907544104956417 0.0
        CHANNELS 3 Zrotation Xrotation Yrotation
        JOINT LeftKnee
        {
            OFFSET 0.0 -0.3402525782585144 0.0
            CHANNELS 3 Zrotation Xrotation Yrotation
            JOINT LeftFoot
            {
                OFFSET 0.0 -0.4457123279571533 0.0
                CHANNELS 3 Zrotation Xrotation Yrotation
                End Site
                {
                    OFFSET 0.0 0.0 0.1782849282026291
                }
            }
        }
    }
    JOINT RightHip
    {
        OFFSET -0.21907544104956417 -0.21907544104956417 0.0
        CHANNELS 3 Zrotation Xrotation Yrotation
        JOINT RightKnee
        {
            OFFSET 0.0 -0.3402525782585144 0.0
            CHANNELS 3 Zrotation Xrotation Yrotation
            JOINT RightFoot
            {
                OFFSET 0.0 -0.4457123279571533 0.0
                CHANNELS 3 Zrotation Xrotation Yrotation
                End Site
                {
                    OFFSET 0.0 0.0 0.1782849282026291
                }
            }
        }
    }
}
MOTION
Frames: 4
Frame Time: 0.03333333333333333
-0.25072529911994934 0.3156817853450775 3.4856820106506348 -2.9197660388879454 -14.39976660192349 -160.17184690889076 2.3813054911577874e-08 4.217087697873375e-08 6.1822503784749685 92.78653537469296 -28.35115352460309 178.47377923384022 2.5897822139370716e-08 -1.2027226406618492e-06 59.581985547401054 8.827812596100317e-32 -3.1805546814635168e-15 3.1805546814635168e-15 -105.27665689613005 -34.3619692953509 -170.40514016777456 -5.960519950757066e-06 -7.733052783630426e-07 -44.33210412503202 8.827812596100317e-32 -3.1805546814635168e-15 3.1805546814635168e-15 -3.5614176864809983 8.18347175115508 -47.56746611441099 -0.9855448591856831 -8.562611564059127 20.243580864838265 -4.969616689786745e-16 8.620910738379216e-34 -1.987846675914698e-16 -11.229951924285643 4.532115719097842 61.21194756386875 7.643147076417174 -13.069745225755073 -30.05221736091384 -7.951386703658792e-16 5.517382872562698e-33 -7.951386703658792e-16
-0.24828219413757324 0.3162302076816559 3.486591100692749 -2.953870308382979 -14.15446465246157 -160.7233528044082 -1.265205477780022e-07 -8.678139198112628e-07 5.6324510660344975 92.91604728187525 -32.200017473442486 178.5132672263004 -4.575455237297041e-06 7.321499313091412e-07 57.48404829747255 -6.3611093629270335e-15 0.0 0.0 -105.22412127954001 -36.34522131400222 -170.87289237686085 2.0588192133398595e-06 4.366049518687042e-06 -48.654378580521154 6.3611093629270335e-15 1.7655625192200634e-31 3.1805546814635168e-15 -3.349926336933012 8.512952121388553 -48.413593790698904 -0.4973344128548032 -8.768556059790912 20.990788559079828 6.957463365701443e-16 -1.5902773407317584e-15 -1.987846675914698e-16 -10.688075598994677 4.631303586574112 59.22029946833231 7.987537664652863 -12.457206342251778 -27.973201607656716 0.0 0.0 3.975693351829396e-16
-0.2460619956254959 0.316826194524765 3.487746000289917 -2.8351640974073704 -14.110046970947293 -160.98787826465949 -4.163914095300222e-08 -9.0459800698105e-07 5.3173891093923915 93.02468698442213 -33.2233543723078 178.53699968173473 -2.378140859716551e-06 -1.1139682209336577e-06 56.91143343145862 0.0 0.0 0.0 -105.11219082008733 -37.04734491681358 -171.28617534939227 2.379318475256572e-06 6.878316061323568e-07 -51.583324050842684 0.0 6.3611093629270335e-15 0.0 -2.9705816954273256 8.370641603916614 -48.955228070427566 -1.05292331963476 -9.399894456505017 22.016375995884978 -2.981770013872047e-16 2.069018577211012e-33 -7.951386703658792e-16 -10.15305870517567 4.399282109050782 57.21196110785194 8.379991738624485 -11.78982045572198 -26.092187650399197 -1.5902773407317582e-15 8.827812596100317e-32 -6.361109362927033e-15
-0.24510489404201508 0.3169094920158386 3.4882729053497314 -2.666508490210686 -14.115331744167118 -161.47311481667847 1.4651884274849302e-07 -6.252424523899675e-07 5.446971406998303 93.1206677263342 -36.580275892749974 178.49219819820573 -1.2801812419974237e-06 1.5180298959188743e-06 56.84718452975697 0.0 0.0 0.0 -105.07557271006206 -37.30218531549382 -171.5283681641644 2.0963384859165642e-07 -4.049547107439922e-06 -54.83404624385369 0.0 0.0 6.3611093629270335e-15 -2.545845555802668 8.237486056780657 -49.8035027040418 -1.2897371574892889 -9.528395254777568 22.42336207606621 -1.987846675914698e-16 1.5902773407317584e-15 9.93923337957349e-16 -9.802975845927582 4.164018372578034 55.385000065909246 8.910831290634212 -11.361774191703411 -24.653069321755233 -2.0966054915738252e-31 -3.1805546814635164e-15 -7.55381736847585e-15
